# xmcd CD database file
#
# Track frame offsets:
#	150
#	16325
#	32296
#	54062
#	69008
#	86441
#	108234
#	124371
#	151705
#	167242
#	193302
#	217097
#	239767
#	261220
#	284902
#	304365
#	326285
#
# Disc length: 4665 seconds
#
# Revision: 1
# Processed by: cddbd v1.5.2PL0 Copyright (c) Steve Scherf et al.
# Submitted via: CDex 1.70beta2
#
DISCID=ed123711
DTITLE=Nina Simone - The Real... 3
DYEAR=2012
DGENRE=Jazz
TTITLE0=Here Comes The Sun
TTITLE1=Angel Of The Morning
TTITLE2=New World Coming
TTITLE3=O-o-h Child
TTITLE4=Tell It Like It Is
TTITLE5=No Opportunity Necessary, No Experience Needed [Live]
TTITLE6=Save Me [Live]
TTITLE7=The Other Woman [Live]
TTITLE8=Tanywey
TTITLE9=I Want A Little Sugar In My Bowl [Live]
TTITLE10=Funkier Than A Mosquito's Tweeter [Live]
TTITLE11=Let It Be Me [Live]
TTITLE12=Poppies [Live]
TTITLE13=The Pusher [Live]
TTITLE14=Zungo [Live]
TTITLE15=Mr. Bojangles [Live]
TTITLE16=My Way [Live]
EXTD=YEAR: 2012
EXTT0=
EXTT1=
EXTT2=
EXTT3=
EXTT4=
EXTT5=
EXTT6=
EXTT7=
EXTT8=
EXTT9=
EXTT10=
EXTT11=
EXTT12=
EXTT13=
EXTT14=
EXTT15=
EXTT16=
PLAYORDER=
